<svg width="67" height="67" viewBox="0 0 67 67" fill="none" xmlns="http://www.w3.org/2000/svg">
<path fill-rule="evenodd" clip-rule="evenodd" d="M26.364 1.9933L24.9603 8.45917C23.7592 8.85616 22.589 9.34127 21.4593 9.91053L15.8919 6.3308C15.5399 6.10498 15.1279 5.99104 14.7099 6.00398C14.2919 6.01691 13.8876 6.15612 13.5503 6.40327C10.8156 8.40505 8.40505 10.8156 6.40327 13.5503C6.15612 13.8876 6.01691 14.2919 6.00398 14.7099C5.99104 15.1279 6.10498 15.5399 6.3308 15.8919L9.91053 21.4593C9.34117 22.5876 8.85669 23.7595 8.45917 24.9603L1.9933 26.364C1.58421 26.4529 1.21169 26.6638 0.924859 26.9687C0.638032 27.2736 0.450373 27.6584 0.38666 28.0721C-0.128887 31.4216 -0.128887 34.8303 0.38666 38.1798C0.450373 38.5936 0.638032 38.9783 0.924859 39.2833C1.21169 39.5882 1.58421 39.799 1.9933 39.8879L8.45917 41.2917C8.85616 42.4928 9.34127 43.663 9.91053 44.7927L6.3308 50.36C6.10498 50.712 5.99104 51.1241 6.00398 51.5421C6.01691 51.9601 6.15612 52.3643 6.40327 52.7017C8.40505 55.4364 10.8156 57.8469 13.5503 59.8487C13.8876 60.0958 14.2919 60.235 14.7099 60.248C15.1279 60.2609 15.5399 60.147 15.8919 59.9212L21.4593 56.3414C22.589 56.9107 23.7592 57.3958 24.9603 57.7928L26.364 64.2587C26.4529 64.6677 26.6638 65.0403 26.9687 65.3271C27.2736 65.6139 27.6584 65.8016 28.0721 65.8653C31.4216 66.3808 34.8303 66.3808 38.1798 65.8653C38.5936 65.8016 38.9783 65.6139 39.2833 65.3271C39.5882 65.0403 39.799 64.6677 39.8879 64.2587L41.2917 57.7928C42.4925 57.3953 43.6643 56.9108 44.7927 56.3414L50.36 59.9212C50.712 60.147 51.1241 60.2609 51.5421 60.248C51.9601 60.235 52.3643 60.0958 52.7017 59.8487C55.4364 57.8469 57.8469 55.4364 59.8487 52.7017C60.0958 52.3643 60.235 51.9601 60.248 51.5421C60.2609 51.1241 60.147 50.712 59.9212 50.36L56.3414 44.7927C56.9108 43.6643 57.3953 42.4925 57.7928 41.2917L64.2587 39.8879C64.6677 39.799 65.0403 39.5882 65.3271 39.2833C65.6139 38.9783 65.8016 38.5936 65.8653 38.1798C66.3808 34.8303 66.3808 31.4216 65.8653 28.0721C65.8016 27.6584 65.6139 27.2736 65.3271 26.9687C65.0403 26.6638 64.6677 26.4529 64.2587 26.364L57.7928 24.9603C57.3953 23.7595 56.9108 22.5876 56.3414 21.4593L59.9212 15.8919C60.147 15.5399 60.2609 15.1279 60.248 14.7099C60.235 14.2919 60.0958 13.8876 59.8487 13.5503C57.8469 10.8156 55.4364 8.40505 52.7017 6.40327C52.3643 6.15612 51.9601 6.01691 51.5421 6.00398C51.1241 5.99104 50.712 6.10498 50.36 6.3308L44.7927 9.91053C43.6643 9.34117 42.4925 8.85669 41.2917 8.45917L39.8879 1.9933C39.799 1.58421 39.5882 1.21169 39.2833 0.924859C38.9783 0.638032 38.5936 0.450373 38.1798 0.38666C34.8303 -0.128887 31.4216 -0.128887 28.0721 0.38666C27.6584 0.450373 27.2736 0.638032 26.9687 0.924859C26.6638 1.21169 26.4529 1.58421 26.364 1.9933ZM51.7515 33.1238C51.7515 43.4149 43.409 51.7574 33.118 51.7574C22.8269 51.7574 14.4844 43.4149 14.4844 33.1238C14.4844 22.8328 22.8269 14.4902 33.118 14.4902C43.409 14.4902 51.7515 22.8328 51.7515 33.1238Z" fill="#2563EB"/>
<path fill-rule="evenodd" clip-rule="evenodd" d="M26.9142 39.3385V31.0528C26.9142 29.912 27.8397 28.9865 28.9805 28.9865H28.9888C30.1296 28.9865 31.0551 29.912 31.0551 31.0528V39.3385C31.0551 39.8876 31.2732 40.4143 31.6615 40.8025C32.0497 41.1908 32.5764 41.4089 33.1255 41.4089C33.6746 41.4089 34.2012 41.1908 34.5895 40.8025C34.9777 40.4143 35.1959 39.8876 35.1959 39.3385V31.0528C35.1959 29.4066 34.5419 27.8278 33.3778 26.6637C32.2138 25.4997 30.635 24.8457 28.9888 24.8457H28.9805C27.3343 24.8457 25.7555 25.4997 24.5915 26.6637C23.4274 27.8278 22.7734 29.4066 22.7734 31.0528V39.3385C22.7734 39.8876 22.9916 40.4143 23.3798 40.8025C23.7681 41.1908 24.2947 41.4089 24.8438 41.4089C25.3929 41.4089 25.9196 41.1908 26.3078 40.8025C26.6961 40.4143 26.9142 39.8876 26.9142 39.3385Z" fill="#2563EB"/>
<path fill-rule="evenodd" clip-rule="evenodd" d="M24.8438 37.2681H33.1255C33.6746 37.2681 34.2012 37.05 34.5895 36.6617C34.9777 36.2734 35.1959 35.7468 35.1959 35.1977C35.1959 34.6486 34.9777 34.122 34.5895 33.7337C34.2012 33.3455 33.6746 33.1273 33.1255 33.1273H24.8438C24.2947 33.1273 23.7681 33.3455 23.3798 33.7337C22.9916 34.122 22.7734 34.6486 22.7734 35.1977C22.7734 35.7468 22.9916 36.2734 23.3798 36.6617C23.7681 37.05 24.2947 37.2681 24.8438 37.2681ZM39.3367 26.9161V39.3385C39.3367 39.8876 39.5548 40.4143 39.9431 40.8025C40.3314 41.1908 40.858 41.4089 41.4071 41.4089C41.9562 41.4089 42.4828 41.1908 42.8711 40.8025C43.2594 40.4143 43.4775 39.8876 43.4775 39.3385V26.9161C43.4775 26.367 43.2594 25.8404 42.8711 25.4521C42.4828 25.0638 41.9562 24.8457 41.4071 24.8457C40.858 24.8457 40.3314 25.0638 39.9431 25.4521C39.5548 25.8404 39.3367 26.367 39.3367 26.9161Z" fill="#2563EB"/>
</svg>
