<svg width="66" height="67" viewBox="0 0 66 67" fill="none" xmlns="http://www.w3.org/2000/svg">
<path d="M19.5359 38.749C24.1889 38.749 27.9179 42.5144 27.9179 47.2004V58.4503C27.9179 63.1034 24.1889 66.8984 19.5359 66.8984H8.38196C3.76198 66.8984 0 63.1034 0 58.4503V47.2004C0 42.5144 3.76198 38.749 8.38196 38.749H19.5359ZM57.618 38.749C62.238 38.749 66 42.5144 66 47.2004V58.4503C66 63.1034 62.238 66.8984 57.618 66.8984H46.4641C41.8111 66.8984 38.0821 63.1034 38.0821 58.4503V47.2004C38.0821 42.5144 41.8111 38.749 46.4641 38.749H57.618ZM19.5359 0.898438C24.1889 0.898438 27.9179 4.69349 27.9179 9.34986V20.5997C27.9179 25.2858 24.1889 29.0479 19.5359 29.0479H8.38196C3.76198 29.0479 0 25.2858 0 20.5997V9.34986C0 4.69349 3.76198 0.898438 8.38196 0.898438H19.5359ZM57.618 0.898438C62.238 0.898438 66 4.69349 66 9.34986V20.5997C66 25.2858 62.238 29.0479 57.618 29.0479H46.4641C41.8111 29.0479 38.0821 25.2858 38.0821 20.5997V9.34986C38.0821 4.69349 41.8111 0.898438 46.4641 0.898438H57.618Z" fill="#2563EB"/>
</svg>
