<svg width="84" height="67" viewBox="0 0 84 67" fill="none" xmlns="http://www.w3.org/2000/svg">
<path d="M50.2687 0.898438C45.3323 0.898438 40.5847 1.94578 36.157 4.0124C34.0841 4.98343 33.1906 7.43656 34.165 9.49906C35.1399 11.5657 37.612 12.4476 39.687 11.4811C43 9.93384 46.5603 9.14844 50.2687 9.14844C63.9994 9.14844 75.1687 20.2505 75.1687 33.8984C75.1687 47.5464 63.9994 58.6484 50.2687 58.6484C47.3326 58.6484 44.4612 58.1489 41.7317 57.1659C39.5816 56.3884 37.1966 57.4922 36.4143 59.6314C35.632 61.7744 36.7447 64.1392 38.8985 64.9168C42.5381 66.2339 46.364 66.8984 50.2687 66.8984C68.5748 66.8984 83.4687 52.0942 83.4687 33.8984C83.4687 15.7027 68.5748 0.898438 50.2687 0.898438ZM12.9186 29.7734C10.627 29.7734 8.76864 31.6186 8.76864 33.8984C8.76864 36.1783 10.627 38.0234 12.9186 38.0234H29.5187C31.8103 38.0234 33.6687 36.1783 33.6687 33.8984C33.6687 31.6186 31.8103 29.7734 29.5187 29.7734H12.9186Z" fill="#2563EB"/>
<path d="M37.8188 17.3984C37.8188 15.1185 35.9604 13.2734 33.6688 13.2734H21.2188C18.9271 13.2734 17.0688 15.1185 17.0688 17.3984C17.0688 19.6783 18.9271 21.5234 21.2188 21.5234H33.6688C35.9604 21.5234 37.8188 19.6783 37.8188 17.3984ZM4.61876 54.5234H33.6688C35.9604 54.5234 37.8188 52.6783 37.8188 50.3984C37.8188 48.1185 35.9604 46.2734 33.6688 46.2734H4.61876C2.32712 46.2734 0.46875 48.1185 0.46875 50.3984C0.46875 52.6783 2.32712 54.5234 4.61876 54.5234ZM50.2688 21.5234C47.9772 21.5234 46.1188 23.3686 46.1188 25.6484V33.8984C46.1188 35.4614 47.0065 36.8874 48.4125 37.5882L56.7125 41.7132C57.3085 42.0074 57.9426 42.1484 58.5647 42.1484C60.0886 42.1484 61.5535 41.3148 62.281 39.8685C63.3065 37.8304 62.4757 35.3529 60.4247 34.3336L54.4188 31.3484V25.6484C54.4188 23.3686 52.5605 21.5234 50.2688 21.5234Z" fill="#2563EB"/>
</svg>
