<svg width="66" height="66" viewBox="0 0 66 66" fill="none" xmlns="http://www.w3.org/2000/svg">
<g clip-path="url(#clip0_1023_2149)">
<path fill-rule="evenodd" clip-rule="evenodd" d="M33.5156 19.6948C33.1836 20.0722 33 20.5569 33 21.0602V42.8773C33 43.3806 33.1836 43.8653 33.5156 44.2427C36.9188 48.0996 41.8956 50.5312 47.4375 50.5312C57.6819 50.5312 66 42.2132 66 31.9688C66 21.7243 57.6819 13.4062 47.4375 13.4062C41.8956 13.4062 36.9188 15.8379 33.5156 19.6948ZM37.125 42.0688C39.7464 44.7439 43.3991 46.4062 47.4375 46.4062C55.4049 46.4062 61.875 39.9362 61.875 31.9688C61.875 24.0013 55.4049 17.5312 47.4375 17.5312C43.3991 17.5312 39.7464 19.1936 37.125 21.8687V42.0688Z" fill="#2563EB"/>
<path fill-rule="evenodd" clip-rule="evenodd" d="M30.9386 66.0077C32.5798 66.0077 34.1528 65.3616 35.3144 64.1928C36.4738 63.0378 37.1272 61.4565 37.125 59.8202C37.125 47.5965 37.125 12.3827 37.125 12.3827C37.125 11.8327 36.9094 11.3102 36.5222 10.9252L26.2086 0.61269C25.8236 0.22769 25.2978 0.0078125 24.7522 0.0078125H6.1885C4.54729 0.0078125 2.97429 0.653905 1.81268 1.82266C0.653278 2.97766 -0.00012207 4.55902 -0.00012207 6.19527C0.00207901 17.4428 0.00207901 48.5727 0.00207901 59.8202C-0.00012207 63.244 2.77188 66.0077 6.1885 66.0077H30.9386ZM23.8964 4.13265H6.1885C5.6407 4.13265 5.11709 4.35273 4.72989 4.73773C4.34269 5.12273 4.12489 5.64527 4.12489 6.19527C4.12489 17.4428 4.12489 48.5727 4.12489 59.8202C4.12489 60.9615 5.04889 61.8828 6.1885 61.8828H30.9386C31.4864 61.8828 32.01 61.6628 32.3972 61.2778C32.7844 60.8928 33.0022 60.3702 33 59.8202L33.0022 13.2352L23.8964 4.13265Z" fill="#2563EB"/>
<path fill-rule="evenodd" clip-rule="evenodd" d="M10.3125 41.25H26.8126C27.9511 41.25 28.8751 40.326 28.8751 39.1875C28.8751 38.049 27.9511 37.125 26.8126 37.125H10.3125C9.174 37.125 8.25 38.049 8.25 39.1875C8.25 40.326 9.174 41.25 10.3125 41.25Z" fill="#2563EB"/>
<path fill-rule="evenodd" clip-rule="evenodd" d="M10.3125 33H26.8126C27.9511 33 28.8751 32.076 28.8751 30.9375C28.8751 29.799 27.9511 28.875 26.8126 28.875H10.3125C9.174 28.875 8.25 29.799 8.25 30.9375C8.25 32.076 9.174 33 10.3125 33Z" fill="#2563EB"/>
<path fill-rule="evenodd" clip-rule="evenodd" d="M10.3125 49.5H26.8126C27.9511 49.5 28.8751 48.576 28.8751 47.4375C28.8751 46.299 27.9511 45.375 26.8126 45.375H10.3125C9.174 45.375 8.25 46.299 8.25 47.4375C8.25 48.576 9.174 49.5 10.3125 49.5Z" fill="#2563EB"/>
<path fill-rule="evenodd" clip-rule="evenodd" d="M54.9141 34.6112C55.4029 34.2193 55.6875 33.6274 55.6875 33.0004C55.6875 32.3734 55.4029 31.7814 54.9141 31.3896L44.6016 23.1396C43.9828 22.6446 43.1331 22.5476 42.4194 22.8921C41.7038 23.2344 41.25 23.9584 41.25 24.7504V41.2504C41.25 42.0424 41.7038 42.7663 42.4194 43.1087C43.1331 43.4531 43.9828 43.3562 44.6016 42.8612L54.9141 34.6112ZM35.0625 14.4379C35.8958 14.4379 36.6486 13.9346 36.9682 13.1653C37.2879 12.3939 37.1106 11.5071 36.5207 10.9172L26.2082 0.604696C25.6183 0.0148205 24.7314 -0.162545 23.9601 0.157143C23.1908 0.47683 22.6875 1.22963 22.6875 2.06288V12.3754C22.6875 13.5139 23.6115 14.4379 24.75 14.4379H35.0625Z" fill="#2563EB"/>
</g>
<defs>
<clipPath id="clip0_1023_2149">
<rect width="66" height="66" fill="white"/>
</clipPath>
</defs>
</svg>
